<?xml version="1.0" encoding="utf-8"?>
<!-- Generator: Adobe Illustrator 19.0.0, SVG Export Plug-In . SVG Version: 6.00 Build 0)  -->
<svg version="1.1" id="Layer_1" xmlns="http://www.w3.org/2000/svg" xmlns:xlink="http://www.w3.org/1999/xlink" x="0px" y="0px"
	 viewBox="0 0 512 512" style="enable-background:new 0 0 512 512;" xml:space="preserve">
<g id="XMLID_2_">
	<path id="XMLID_13_" d="M362.7,0C338.8,0,320,17.1,320,37.5v102.4c0,20.5,18.8,37.5,42.7,37.5c23.9,0,42.7-17.1,42.7-37.5V37.5
		C405.3,17.1,386.6,0,362.7,0z M0,70.8v35.8h298.7V70.8H0z M426.7,70.8v35.8H512V70.8H426.7z M149.3,170.7
		c-23.9,0-42.7,17.1-42.7,37.5v102.4c0,20.5,18.8,37.5,42.7,37.5s42.7-17.1,42.7-37.5V208.2C192,187.7,173.2,170.7,149.3,170.7z
		 M0,241.5v35.8h85.3v-35.8H0z M213.3,241.5v35.8H512v-35.8H213.3z M362.7,334.5c-23.9,0-42.7,17.1-42.7,37.5v102.4
		c0,20.5,18.8,37.5,42.7,37.5c23.9,0,42.7-17.1,42.7-37.5V372.1C405.3,350.7,386.6,334.5,362.7,334.5z M0,405.3v35.8h298.7v-35.8H0z
		 M426.7,405.3v35.8H512v-35.8H426.7z"/>
</g>
</svg>
